<svg width="30" height="28" viewBox="0 0 30 28" fill="none" xmlns="http://www.w3.org/2000/svg">
<path d="M29.48 4.66663H25.735V10.5H29.48V4.66663Z" fill="#FF4267"/>
<path d="M29.48 12.8334H25.735V18.6667H29.48V12.8334Z" fill="#FF4267"/>
<path d="M20.7417 0H0.768372V28H20.7417C22.8064 28 24.4867 26.4297 24.4867 24.5V3.5C24.4867 1.57033 22.8064 0 20.7417 0ZM12.6275 7C14.3515 7 15.7484 8.3055 15.7484 9.91667C15.7484 11.5278 14.3515 12.8333 12.6275 12.8333C10.9036 12.8333 9.5067 11.5278 9.5067 9.91667C9.5067 8.3055 10.9036 7 12.6275 7ZM18.245 19.8333H7.01004V17.9422C7.01004 16.9027 7.74031 15.9938 8.80764 15.6998C9.80006 15.4257 11.1333 15.1667 12.6275 15.1667C14.1218 15.1667 15.455 15.4257 16.4474 15.6998C17.5148 15.9938 18.245 16.9027 18.245 17.9422V19.8333Z" fill="#FF4267"/>
</svg>
