<svg width="25" height="28" viewBox="0 0 25 28" fill="none" xmlns="http://www.w3.org/2000/svg">
<path d="M0.0166626 1.16667V26.8333C0.0166626 27.1428 0.148183 27.4395 0.382291 27.6583C0.616399 27.8771 0.933917 28 1.265 28H23.735C24.0661 28 24.3836 27.8771 24.6177 27.6583C24.8518 27.4395 24.9833 27.1428 24.9833 26.8333V1.16667C24.9833 0.857247 24.8518 0.560501 24.6177 0.341709C24.3836 0.122916 24.0661 0 23.735 0L1.265 0C0.933917 0 0.616399 0.122916 0.382291 0.341709C0.148183 0.560501 0.0166626 0.857247 0.0166626 1.16667ZM3.76166 5.83333H11.2517V12.8333H3.76166V5.83333ZM21.2383 22.1667H3.76166V19.8333H21.2383V22.1667ZM21.2383 17.5H3.76166V15.1667H21.2383V17.5ZM21.2383 12.8333H13.7483V10.5H21.2383V12.8333ZM21.2383 8.16667H13.7483V5.83333H21.2383V8.16667Z" fill="#3629B7"/>
</svg>
