<svg width="25" height="28" viewBox="0 0 25 28" fill="none" xmlns="http://www.w3.org/2000/svg">
<path d="M23.735 0H1.265C0.575916 0 0.0166626 0.5215 0.0166626 1.16667V28L5.01 24.5L8.755 28L12.5 24.5L16.245 28L19.99 24.5L24.9833 28V1.16667C24.9833 0.5215 24.4241 0 23.735 0ZM13.7483 18.6667H5.01V16.3333H13.7483V18.6667ZM13.7483 14H5.01V11.6667H13.7483V14ZM13.7483 9.33333H5.01V7H13.7483V9.33333ZM19.99 18.6667H16.245V16.3333H19.99V18.6667ZM19.99 14H16.245V11.6667H19.99V14ZM19.99 9.33333H16.245V7H19.99V9.33333Z" fill="#52D5BA"/>
</svg>
